<svg width="28" height="28" viewBox="0 0 24 24" fill="none" xmlns="http://www.w3.org/2000/svg">
  <path d="M8 12V8C8 6.9 8.9 6 10 6S12 6.9 12 8V12" stroke="#6b46c1" stroke-width="1.5" stroke-linecap="round" stroke-linejoin="round" fill="none"/>
  <path d="M12 12V7C12 5.9 12.9 5 14 5S16 5.9 16 7V12" stroke="#6b46c1" stroke-width="1.5" stroke-linecap="round" stroke-linejoin="round" fill="none"/>
  <path d="M16 12V9C16 7.9 16.9 7 18 7S20 7.9 20 9V13" stroke="#6b46c1" stroke-width="1.5" stroke-linecap="round" stroke-linejoin="round" fill="none"/>
  <path d="M8 12V13C8 16.31 10.69 19 14 19H16C19.31 19 22 16.31 22 13V11" stroke="#6b46c1" stroke-width="1.5" stroke-linecap="round" stroke-linejoin="round" fill="none"/>
  <path d="M6 12V15C6 15.55 6.45 16 7 16S8 15.55 8 15V12C8 10.9 7.1 10 6 10S4 10.9 4 12V15C4 16.1 4.9 17 6 17" stroke="#6b46c1" stroke-width="1.5" stroke-linecap="round" stroke-linejoin="round" fill="white"/>
</svg>